<!DOCTYPE svg PUBLIC "-//W3C//DTD SVG 20010904//EN" "http://www.w3.org/TR/2001/REC-SVG-20010904/DTD/svg10.dtd">
<svg version="1.0" xmlns="http://www.w3.org/2000/svg" width="175px" height="105px" viewBox="0 0 1750 1050" preserveAspectRatio="xMidYMid meet">
<g id="layer1" fill="#ffffff" stroke="none">
 <path d="M38 1009 c-10 -5 -18 -16 -18 -24 0 -8 140 -203 311 -435 l311 -421 82 104 c44 57 93 119 109 138 l27 34 28 -34 c15 -19 64 -81 108 -138 l82 -104 311 421 c171 232 311 427 311 435 0 17 -37 38 -55 31 -9 -3 -452 -573 -571 -734 -3 -4 -154 204 -154 212 0 9 90 120 100 124 4 1 22 -18 41 -42 19 -25 37 -46 40 -46 4 0 38 42 77 93 38 50 108 143 156 205 47 63 86 118 86 123 0 5 -232 9 -560 9 -328 0 -560 -4 -560 -9 0 -5 39 -60 86 -123 48 -62 118 -155 156 -205 39 -51 73 -93 77 -93 3 0 21 21 40 46 19 24 37 43 41 42 10 -4 100 -115 100 -124 0 -3 -34 -53 -76 -110 l-76 -104 -151 197 c-339 444 -413 538 -427 540 -8 2 -23 -2 -32 -8z m712 -191 c-102 -123 -119 -140 -128 -137 -7 4 -124 135 -161 182 -13 16 -4 17 164 17 l177 0 -52 -62z m509 45 c-37 -47 -154 -178 -161 -182 -9 -3 -26 14 -128 137 l-52 62 177 0 c168 0 177 -1 164 -17z m-346 -108 l48 -54 -47 -63 c-25 -35 -50 -63 -54 -63 -4 0 -29 28 -54 63 l-47 63 48 54 c26 30 50 55 53 55 3 0 27 -25 53 -55z"/>
 </g>
<g id="layer2" fill="#000000" stroke="none">
 <path d="M0 525 l0 -525 875 0 875 0 0 525 0 525 -875 0 -875 0 0 -525z m215 320 c72 -94 199 -259 282 -368 l151 -197 76 104 c42 57 76 107 76 110 0 9 -90 120 -100 124 -4 1 -22 -18 -41 -42 -19 -25 -37 -46 -40 -46 -4 0 -38 42 -77 93 -38 50 -108 143 -156 205 -47 63 -86 118 -86 123 0 5 232 9 560 9 328 0 560 -4 560 -9 0 -5 -39 -60 -86 -123 -48 -62 -118 -155 -156 -205 -39 -51 -73 -93 -77 -93 -3 0 -21 21 -40 46 -19 24 -37 43 -41 42 -10 -4 -100 -115 -100 -124 0 -8 151 -216 154 -212 119 161 562 731 571 734 18 7 55 -14 55 -31 0 -8 -140 -203 -311 -435 l-311 -421 -82 104 c-44 57 -93 119 -108 138 l-28 34 -27 -34 c-16 -19 -65 -81 -109 -138 l-82 -104 -311 421 c-171 232 -311 427 -311 435 0 17 29 36 50 32 8 -1 73 -79 145 -172z"/>
 <path d="M461 863 c37 -47 154 -178 161 -182 9 -3 26 14 128 137 l52 62 -177 0 c-168 0 -177 -1 -164 -17z"/>
 <path d="M970 818 c102 -123 119 -140 128 -137 7 4 124 135 161 182 13 16 4 17 -164 17 l-177 0 52 -62z"/>
 <path d="M807 755 l-48 -54 47 -63 c25 -35 50 -63 54 -63 4 0 29 28 54 63 l47 63 -48 54 c-26 30 -50 55 -53 55 -3 0 -27 -25 -53 -55z"/>
 </g>

</svg>